<svg xmlns="http://www.w3.org/2000/svg" version="1.1" xlink="http://www.w3.org/1999/xlink" xmlns:svgjs="http://svgjs.com/svgjs" width="100%" height="100%" viewBox="11.200000762939453 2.299999713897705 78.80000305175781 94.9000015258789"><g fill="#37adfb"><path d="M47.3 24.5c.7.2 1.4.4 2.1.5.5.1.9.1 1.4.1h.8c.7 0 1.4-.2 2-.3.6-.2 1.3-.4 1.9-.7.6-.3.9-1.1.6-1.7-.3-.6-1.1-.9-1.7-.6-.4.2-.9.4-1.4.5-.5.1-1 .2-1.6.3h-1.7c-.6-.1-1.1-.2-1.7-.4-.7-.2-1.4.2-1.6.8-.2.5.2 1.3.9 1.5zm-5.5 15c1.5 0 2.7-1.2 2.7-2.7 0-1.5-1.2-2.7-2.7-2.7s-2.7 1.2-2.7 2.7c0 1.5 1.2 2.7 2.7 2.7zm30.1 14.1c-2.3 5.4-10.6 9-21.4 9-.9 0-1.6-.7-1.6-1.6 0-.9.7-1.6 1.6-1.6 11.8 0 18.8-4.5 18.8-8.9 0-.9 0-1.7-.5-2.6-2.4-2.3-7.2-4.1-11.4-4.9 0-3-2.8-5.5-5.8-5.5s-5.6 2.3-5.7 5.2c-8.3.9-14.3 4.2-15.6 8.4h-.1v.2C25.4 61 17.7 75.1 17.8 77.5c.1 2.4 2.5 4.2 8.5 7.4 6.9 3.7 15.8 5.8 24.4 5.8 8.5 0 17.3-2.1 24.2-5.8 5.9-3.1 8.4-5.7 8.4-7.3-.1-1.6-6.5-14.3-11.4-24zM48.3 31.7c0 1.2 1 2.3 2.3 2.3 1.2 0 2.3-1 2.3-2.3s-1-2.3-2.3-2.3c-1.3 0-2.3 1-2.3 2.3zm24 9.8c-4.8-9-10.7-19.1-10.7-20.8V9.4c0-4-4.9-7.1-11.1-7.1-6.2 0-11.1 3.1-11.1 7.1v11.3c0 1.8-5.9 11.9-10.7 20.8-12.4 23-17.5 33.1-17.5 35.8 0 4.4 4.5 9.4 12 13.4 7.9 4.2 17.6 6.5 27.4 6.5 9.7 0 19.5-2.3 27.4-6.6 7.5-4 12-9 12-13.3-.2-2.7-5.3-12.8-17.7-35.8zM50.5 5.8c4.3 0 7.4 1.8 7.4 3.5s-3.2 3.5-7.4 3.5c-4.3 0-7.4-1.9-7.4-3.5s3.1-3.5 7.4-3.5zm25.7 81.7c-4.3 2.3-13.3 6.1-25.7 6.1-20.6 0-35.7-10.7-35.7-16.3.2-2.7 10.1-21.6 16.8-34.1 9.5-17.7 10.9-21.1 10.9-22.4v-6.2c2.1 1.1 5 1.8 7.9 1.8 2.9 0 5.8-.7 7.9-1.8v6.2c0 1.3 1.4 4.7 10.9 22.4 6.7 12.5 16.7 31.4 17 34.1.1 2.4-3.1 6.5-10 10.2z"></path></g></svg>