<svg xmlns:dc="http://purl.org/dc/elements/1.1/" xmlns:cc="http://creativecommons.org/ns#" xmlns:rdf="http://www.w3.org/1999/02/22-rdf-syntax-ns#" xmlns:svg="http://www.w3.org/2000/svg" xmlns="http://www.w3.org/2000/svg" xmlns:xlink="http://www.w3.org/1999/xlink" id="svg454502" viewBox="0 0 1024 768"   version="1.1">
  
  <defs id="defs454506"></defs>
  <linearGradient spreadMethod="pad" y2="30%" x2="-10%" y1="120%" x1="30%" id="3d_gradient2-logo-78ffe17b-ad7e-40bd-bd3c-5f8fd3a5be34">
    <stop id="stop454483" stop-opacity="1" stop-color="#ffffff" offset="0%"></stop>
    <stop id="stop454485" stop-opacity="1" stop-color="#000000" offset="100%"></stop>
  </linearGradient>
  <linearGradient gradientTransform="rotate(-30)" spreadMethod="pad" y2="30%" x2="-10%" y1="120%" x1="30%" id="3d_gradient3-logo-78ffe17b-ad7e-40bd-bd3c-5f8fd3a5be34">
    <stop id="stop454488" stop-opacity="1" stop-color="#ffffff" offset="0%"></stop>
    <stop id="stop454490" stop-opacity="1" stop-color="#cccccc" offset="50%"></stop>
    <stop id="stop454492" stop-opacity="1" stop-color="#000000" offset="100%"></stop>
  </linearGradient>
  <g id="logo-group">
    <image xlink:href="" id="container" x="272" y="144"    style="display: none;" transform="translate(0 0)"></image>
    <g id="logo-center" transform="translate(0 0)">
      <image xlink:href="" id="icon_container" style="display: none;" x="0" y="0"></image>
      <g id="slogan" style="font-style:normal;font-weight:700;font-size:32px;line-height:1;font-family:'Comfortaa Bold Alt2';font-variant-ligatures:none;text-align:center;text-anchor:middle" transform="translate(0 0)"></g>
      <g id="title" style="font-style:normal;font-weight:normal;font-size:72px;line-height:1;font-family:antre;font-variant-ligatures:none;text-align:center;text-anchor:middle" transform="translate(0 0)">
        <path id="path454511" style="font-style:normal;font-weight:normal;font-size:72px;line-height:1;font-family:antre;font-variant-ligatures:none;text-align:center;text-anchor:middle" d="m 474.02,-5.832 12.24,-44.424 c 0.432,-1.656 -0.576,-3.384 -2.232,-3.816 -1.584,-0.504 -3.312,0.504 -3.744,2.16 l -4.968,18.072 c -2.232,-2.52 -5.688,-3.816 -9,-3.816 -3.96,0 -6.624,0.792 -9.432,2.736 -2.952,2.016 -5.616,5.4 -8.424,8.64 l -8.352,9.936 c -1.152,1.296 -1.008,3.24 0.288,4.392 0.576,0.504 1.296,0.72 2.016,0.72 0.864,0 1.512,-0.144 2.16,-0.864 l 3.024,-3.6 c -1.08,4.608 -0.432,8.712 1.872,11.736 2.232,2.88 5.688,4.536 9.936,4.536 3.096,0 6.048,-0.936 8.64,-2.664 0.792,1.512 2.448,2.664 5.04,2.664 4.896,0 7.704,-3.096 11.376,-7.488 l 10.656,-12.672 c 1.08,-1.296 1.008,-3.24 -0.288,-4.32 -1.296,-1.152 -3.456,-0.864 -4.536,0.504 l -11.376,13.536 c -1.368,1.584 -3.168,4.032 -4.896,4.032 z m -14.616,0.216 c -5.688,0 -6.984,-4.68 -5.544,-9.504 0.576,-2.304 1.152,-4.464 1.8,-6.624 1.512,-5.328 5.04,-9.72 10.368,-9.72 5.112,0 7.344,3.816 6.336,8.28 -0.432,1.944 -1.008,3.816 -1.512,5.544 -3.024,10.8 -7.56,12.024 -11.448,12.024 z" stroke-width="0" stroke-linejoin="miter" stroke-miterlimit="2" fill="#508cdb" stroke="#508cdb" transform="translate(0 360.23715799999997) translate(290.64269449999995 -58.404632000000014) scale(3) translate(-439.32687 54.202316)"></path>
        <path id="path454513" style="font-style:normal;font-weight:normal;font-size:72px;line-height:1;font-family:antre;font-variant-ligatures:none;text-align:center;text-anchor:middle" d="m 504.06087,0.576 c 4.032,0 7.77601,-1.512 10.8,-4.392 2.16001,-2.016 3.96,-4.68 5.25601,-7.848 2.736,0.72 4.46399,0.864 6.62399,0.864 1.58401,0 3.168,-0.72 3.888,-1.584 l 7.34401,-8.856 c 1.07999,-1.296 0.93599,-3.024 -0.36,-4.104 -1.29601,-1.152 -3.312,-1.08 -4.39201,0.216 l -6.768,8.064 c -1.44,0 -3.67199,-0.216 -4.464,-0.504 0.79201,-2.88 1.512,-5.4 1.656,-6.12 1.224,-5.112 -0.144,-8.136 -1.43999,-9.792 -1.51201,-1.872 -3.74401,-2.952 -6.19201,-2.952 -1.152,0 -2.23199,0.288 -3.312,0.792 -0.432,-1.224 -1.368,-2.016 -3.096,-2.016 -2.23199,0 -4.464,0.36 -6.83999,1.728 -2.44801,1.368 -5.04001,3.744 -8.49601,7.776 l -9.864,11.736 c -1.15199,1.296 -0.93599,3.384 0.36001,4.464 1.368,1.08 3.024,1.008 4.17599,-0.288 l 3.672,-4.392 c 0,0 0,0 0,0 0,0.072 0,0.072 -0.072,0.288 -1.22401,4.104 -1.00801,8.784 1.65599,12.456 2.16,2.88 5.76001,4.464 9.864,4.464 z m 4.248,-31.896 c -0.71999,1.44 -1.07999,3.816 -1.07999,5.472 0,3.96 1.36799,6.984 4.10399,9.72 0.864,0.864 1.87201,1.584 3.024,2.232 -1.00799,2.304 -2.232,4.176 -3.672,5.544 -1.94399,1.8 -4.176,2.736 -6.624,2.736 -3.816,0 -6.048,-2.304 -6.048,-5.76 0,-1.008 0.21601,-2.376 0.50401,-3.456 0.64799,-2.16 1.224,-4.176 1.87199,-6.624 1.00801,-3.528 2.37601,-6.12 4.10401,-7.848 1.152,-1.08 2.37599,-1.728 3.81599,-2.016 z m 7.704,1.08 c 0.28801,0 0.93601,0.144 1.36801,0.648 0.64799,0.792 0.71999,2.448 0.21599,4.464 -0.072,0.576 -0.79199,3.024 -1.36799,5.04 -1.944,-1.44 -2.808,-3.816 -2.808,-6.336 0,-2.52 1.43999,-3.816 2.59199,-3.816 z" stroke-width="0" stroke-linejoin="miter" stroke-miterlimit="2" fill="#81b1e9" stroke="#81b1e9" transform="translate(0 360.23715799999997) translate(423.6247745 -8.765683999999986) scale(3) translate(-483.65423 37.656)"></path>
        <path id="path454515" style="font-style:normal;font-weight:normal;font-size:72px;line-height:1;font-family:antre;font-variant-ligatures:none;text-align:center;text-anchor:middle" d="m 528.84125,-11.952 c 0.864,0 1.728,-0.36 2.304,-1.08 l 15.12,-18.072 c 0.144,0 0.288,0 0.36,0.072 0.36,1.44 2.448,8.64 3.384,11.952 l -12.96,13.896 c -1.152,1.224 -1.152,3.168 0.144,4.32 0.576,0.576 1.368,0.864 2.088,0.864 0.864,0 1.656,-0.36 2.304,-1.008 l 12.672,-13.608 2.736,9.432 c 1.08,3.672 3.312,5.76 7.56,5.76 3.744,0 5.832,-2.016 7.992,-4.392 l 13.608,-16.272 c 1.08,-1.296 1.008,-3.168 -0.36,-4.248 -1.44,-1.152 -3.312,-0.792 -4.464,0.504 l -13.392,15.912 c -1.152,1.368 -2.232,2.448 -3.456,2.448 -0.72,0 -1.296,-0.576 -1.512,-1.44 -0.432,-1.296 -2.736,-9.504 -3.744,-13.104 l 11.16,-11.88 c 1.152,-1.224 1.08,-3.168 -0.144,-4.392 -1.296,-1.152 -3.24,-1.08 -4.392,0.216 l -10.944,11.736 c -0.936,-3.456 -2.088,-7.488 -2.304,-8.424 -0.432,-1.584 -1.368,-2.808 -2.664,-3.6 -1.08,-0.648 -2.304,-0.936 -4.968,-0.936 -0.936,0 -1.8,0.36 -2.376,1.08 l -16.128,19.152 c -1.152,1.296 -0.936,3.24 0.36,4.392 0.576,0.504 1.296,0.72 2.016,0.72 z" stroke-width="0" stroke-linejoin="miter" stroke-miterlimit="2" fill="#b2d6f6" stroke="#b2d6f6" transform="translate(0 360.23715799999997) translate(549.8058845 -7.685684000000002) scale(3) translate(-525.7146 37.296)"></path>
      </g>
      <image xlink:href="" id="icon" style="display: none;" x="0" y="0"></image>
    </g>
  </g>
</svg>